<svg xmlns="http://www.w3.org/2000/svg" width="900" height="110" viewBox="0 0 900 110" fill="none"><defs>
<linearGradient id="g1" x1="0" y1="0" x2="1" y2="1"><stop offset="0" stop-color="#22d3ee"/><stop offset="1" stop-color="#8b5cf6"/></linearGradient>
<linearGradient id="g2" x1="0" y1="0" x2="1" y2="1"><stop offset="0" stop-color="#8b5cf6"/><stop offset="1" stop-color="#fb7185"/></linearGradient>
<linearGradient id="g3" x1="0" y1="0" x2="1" y2="0"><stop offset="0" stop-color="#22d3ee"/><stop offset="0.5" stop-color="#8b5cf6"/><stop offset="1" stop-color="#fb7185"/></linearGradient>
<linearGradient id="card" x1="0" y1="0" x2="0" y2="1"><stop offset="0" stop-color="#151c3e"/><stop offset="1" stop-color="#0c1129"/></linearGradient>
<linearGradient id="shine" x1="0" y1="0" x2="1" y2="0"><stop offset="0" stop-color="#fff" stop-opacity="0"/><stop offset="0.5" stop-color="#fff" stop-opacity="0.32"/><stop offset="1" stop-color="#fff" stop-opacity="0"/></linearGradient>
<radialGradient id="sph" cx="0.35" cy="0.3" r="0.8"><stop offset="0" stop-color="#2b3a8c"/><stop offset="1" stop-color="#0a0f2c"/></radialGradient>
<pattern id="dots" width="22" height="22" patternUnits="userSpaceOnUse"><circle cx="1" cy="1" r="1" fill="#fff" fill-opacity="0.06"/></pattern>
<filter id="glow" x="-60%" y="-60%" width="220%" height="220%"><feGaussianBlur stdDeviation="3.5" result="b"/><feMerge><feMergeNode in="b"/><feMergeNode in="SourceGraphic"/></feMerge></filter>
<filter id="blur30" x="-60%" y="-60%" width="220%" height="220%"><feGaussianBlur stdDeviation="30"/></filter>
</defs><clipPath id="cl"><rect width="900" height="110" rx="24"/></clipPath><g clip-path="url(#cl)"><rect width="900" height="110" fill="#070b1a"/><rect width="900" height="110" fill="url(#dots)"/><circle cx="90.0" cy="8.8" r="46.199999999999996" fill="#8b5cf6" fill-opacity="0.2" filter="url(#blur30)"/><circle cx="828.0" cy="106.7" r="41.8" fill="#22d3ee" fill-opacity="0.14" filter="url(#blur30)"/><g opacity="0.22"><path d="M0,56 q37.5,-10 75.0,0 t75.0,0 q37.5,-10 75.0,0 t75.0,0 q37.5,-10 75.0,0 t75.0,0 q37.5,-10 75.0,0 t75.0,0 q37.5,-10 75.0,0 t75.0,0 q37.5,-10 75.0,0 t75.0,0 q37.5,-10 75.0,0 t75.0,0 q37.5,-10 75.0,0 t75.0,0 q37.5,-10 75.0,0 t75.0,0 q37.5,-10 75.0,0 t75.0,0 q37.5,-10 75.0,0 t75.0,0 q37.5,-10 75.0,0 t75.0,0 q37.5,-10 75.0,0 t75.0,0 q37.5,-10 75.0,0 t75.0,0 V120 H0 Z" fill="#22d3ee"><animateTransform attributeName="transform" type="translate" values="0 0;-300 0" dur="14s" repeatCount="indefinite"/></path></g><g opacity="0.28"><path d="M0,66 q37.5,-8 75.0,0 t75.0,0 q37.5,-8 75.0,0 t75.0,0 q37.5,-8 75.0,0 t75.0,0 q37.5,-8 75.0,0 t75.0,0 q37.5,-8 75.0,0 t75.0,0 q37.5,-8 75.0,0 t75.0,0 q37.5,-8 75.0,0 t75.0,0 q37.5,-8 75.0,0 t75.0,0 q37.5,-8 75.0,0 t75.0,0 q37.5,-8 75.0,0 t75.0,0 q37.5,-8 75.0,0 t75.0,0 q37.5,-8 75.0,0 t75.0,0 q37.5,-8 75.0,0 t75.0,0 q37.5,-8 75.0,0 t75.0,0 V120 H0 Z" fill="#8b5cf6"><animateTransform attributeName="transform" type="translate" values="0 0;-300 0" dur="10s" repeatCount="indefinite"/></path></g><g opacity="0.34"><path d="M0,76 q37.5,-6 75.0,0 t75.0,0 q37.5,-6 75.0,0 t75.0,0 q37.5,-6 75.0,0 t75.0,0 q37.5,-6 75.0,0 t75.0,0 q37.5,-6 75.0,0 t75.0,0 q37.5,-6 75.0,0 t75.0,0 q37.5,-6 75.0,0 t75.0,0 q37.5,-6 75.0,0 t75.0,0 q37.5,-6 75.0,0 t75.0,0 q37.5,-6 75.0,0 t75.0,0 q37.5,-6 75.0,0 t75.0,0 q37.5,-6 75.0,0 t75.0,0 q37.5,-6 75.0,0 t75.0,0 q37.5,-6 75.0,0 t75.0,0 V120 H0 Z" fill="#fb7185"><animateTransform attributeName="transform" type="translate" values="0 0;-300 0" dur="7s" repeatCount="indefinite"/></path></g><text x="450" y="34" font-family="'Segoe UI','Helvetica Neue',Arial,sans-serif" font-size="13" font-weight="400" fill="#cbd5e1" text-anchor="middle" >© 2026 · Coimbatore, India</text></g></svg>