<svg xmlns="http://www.w3.org/2000/svg" viewBox="0 0 600 280" role="img" aria-label="PLANT INTELLIGENCE">
<defs><linearGradient id="bg" x2="1" y2="1"><stop stop-color="#020617"/><stop offset=".55" stop-color="#0f172a"/><stop offset="1" stop-color="#111827"/></linearGradient><linearGradient id="grad"><stop stop-color="#22c55e"/><stop offset="1" stop-color="#67e8f9"/></linearGradient></defs>
<rect width="600" height="280" rx="24" fill="url(#bg)"/>
<g opacity=".12" stroke="#22c55e" stroke-width="1"><path d="M0 240H600M0 200H600M0 160H600M0 120H600M0 80H600"/><path d="M50 0L0 280M150 0L100 280M250 0L200 280M350 0L300 280M450 0L400 280M550 0L500 280"/></g>
<g transform="translate(30 42)" font-family="Arial,Helvetica,sans-serif"><text fill="#22c55e" font-size="12" font-weight="700" letter-spacing="3">PLANT INTELLIGENCE</text><text y="36" fill="#fff" font-size="20" font-weight="800">PlantSpeakAI</text><rect y="57" width="235" height="3" rx="2" fill="url(#grad)"><animate attributeName="width" values="110;260;170;235" dur="4s" repeatCount="indefinite"/></rect><text y="92" fill="#94a3b8" font-size="12">ESP32 • SIGNALS • ML</text></g><g transform="translate(455 125)"><path d="M0 75V10" stroke="#67e8f9" stroke-width="5"/><path d="M0 25C-65 -5 -95 -45 -72 -82C-25 -75 0 -45 0 25Z" fill="#22c55e" opacity=".78"/><path d="M0 43C65 15 92 -22 68 -60C26 -52 0 -28 0 43Z" fill="#67e8f9" opacity=".82"/><circle cx="0" cy="10" r="18" fill="none" stroke="#e0f2fe" stroke-width="2"><animate attributeName="r" values="12;28;12" dur="2.2s" repeatCount="indefinite"/></circle><g fill="#67e8f9"><circle cx="-45" cy="-35" r="4"><animate attributeName="cy" values="-35;-48;-35" dur="2s" repeatCount="indefinite"/></circle><circle cx="42" cy="-18" r="4"><animate attributeName="cy" values="-18;-31;-18" dur="2.6s" repeatCount="indefinite"/></circle></g><ellipse rx="125" ry="35" fill="none" stroke="#22c55e" opacity=".35"><animateTransform attributeName="transform" type="rotate" from="0" to="360" dur="9s" repeatCount="indefinite"/></ellipse></g></svg>