<svg xmlns="http://www.w3.org/2000/svg" viewBox="0 0 1400 560" role="img" aria-label="Ruthishkumar G AI and full stack developer">
<defs>
<linearGradient id="bg" x1="0" y1="0" x2="1" y2="1"><stop stop-color="#020617"/><stop offset=".48" stop-color="#0b1220"/><stop offset="1" stop-color="#111827"/></linearGradient>
<linearGradient id="cyan" x1="0" y1="0" x2="1" y2="1"><stop stop-color="#67e8f9"/><stop offset="1" stop-color="#06b6d4"/></linearGradient>
<linearGradient id="violet" x1="0" y1="0" x2="1" y2="1"><stop stop-color="#ddd6fe"/><stop offset="1" stop-color="#7c3aed"/></linearGradient>
</defs>
<rect width="1400" height="560" rx="32" fill="url(#bg)"/>
<g opacity=".16" stroke="#38bdf8"><path d="M0 460H1400M0 390H1400M0 320H1400M0 250H1400M0 180H1400M0 110H1400"/><path d="M100 0L0 560M260 0L160 560M420 0L320 560M580 0L480 560M740 0L640 560M900 0L800 560M1060 0L960 560M1220 0L1120 560M1380 0L1280 560"/></g>
<g transform="translate(1050 286)">
<ellipse rx="250" ry="92" fill="none" stroke="#22d3ee" stroke-width="3" opacity=".38">
<animateTransform attributeName="transform" type="rotate" from="0" to="360" dur="15s" repeatCount="indefinite"/>
</ellipse>
<ellipse rx="205" ry="125" fill="none" stroke="#8b5cf6" stroke-width="2" opacity=".42">
<animateTransform attributeName="transform" type="rotate" from="360" to="0" dur="11s" repeatCount="indefinite"/>
</ellipse>
<g>
<polygon points="0,-88 78,-44 78,44 0,88 -78,44 -78,-44" fill="#0f172a" stroke="#67e8f9" stroke-width="4"/>
<polygon points="0,-88 78,-44 0,0 -78,-44" fill="url(#cyan)" opacity=".82"/>
<polygon points="-78,-44 0,0 0,88 -78,44" fill="#0e7490" opacity=".9"/>
<polygon points="0,0 78,-44 78,44 0,88" fill="#312e81" opacity=".92"/>
<animateTransform attributeName="transform" type="rotate" values="0;12;0;-12;0" dur="5s" repeatCount="indefinite"/>
</g>
<g transform="translate(160 -90)">
<polygon points="0,-34 32,-18 32,18 0,34 -32,18 -32,-18" fill="url(#violet)" stroke="#c4b5fd" stroke-width="2"/>
<animateTransform attributeName="transform" type="rotate" values="0;360" dur="8s" repeatCount="indefinite"/>
</g>
<circle cx="-180" cy="100" r="9" fill="#67e8f9"><animate attributeName="r" values="6;14;6" dur="2s" repeatCount="indefinite"/></circle>
</g>
<g transform="translate(76 85)" font-family="Arial,Helvetica,sans-serif">
<text fill="#67e8f9" font-size="16" font-weight="700" letter-spacing="4">OPEN TO INTERNSHIPS &amp; COLLABORATIONS</text>
<text y="78" fill="#ffffff" font-size="60" font-weight="800">RUTHISHKUMAR G</text>
<text y="124" fill="#a5f3fc" font-size="24" font-weight="700">AI &amp; FULL STACK DEVELOPER</text>
<text y="166" fill="#94a3b8" font-size="17">Building Intelligent Systems with AI &amp; Code.</text>
<g transform="translate(0 210)">
<rect width="170" height="76" rx="16" fill="#0f172a" stroke="#155e75"/>
<text x="18" y="28" fill="#64748b" font-size="12" font-weight="700">CGPA</text><text x="18" y="59" fill="#fff" font-size="28" font-weight="800">8.52</text>
<rect x="188" width="170" height="76" rx="16" fill="#0f172a" stroke="#155e75"/>
<text x="206" y="28" fill="#64748b" font-size="12" font-weight="700">INTERNSHIPS</text><text x="206" y="59" fill="#fff" font-size="28" font-weight="800">3</text>
<rect x="376" width="210" height="76" rx="16" fill="#0f172a" stroke="#155e75"/>
<text x="394" y="28" fill="#64748b" font-size="12" font-weight="700">SPECIALIZATION</text><text x="394" y="59" fill="#fff" font-size="22" font-weight="800">AI • CV • FULL STACK</text>
</g>
<g transform="translate(0 338)">
<rect width="150" height="38" rx="19" fill="#083344" stroke="#155e75"/>
<text x="24" y="25" fill="#67e8f9" font-size="14" font-weight="700">VIEW PORTFOLIO</text>
<rect x="164" width="142" height="38" rx="19" fill="#111827" stroke="#3730a3"/>
<text x="194" y="25" fill="#c4b5fd" font-size="14" font-weight="700">CONTACT ME</text>
</g>
</g>
</svg>