<svg xmlns="http://www.w3.org/2000/svg" viewBox="0 0 1400 420" role="img" aria-label="Leadership and recognition">
<defs>
<linearGradient id="bg" x1="0" y1="0" x2="1" y2="1"><stop stop-color="#020617"/><stop offset=".5" stop-color="#0f172a"/><stop offset="1" stop-color="#111827"/></linearGradient>
<linearGradient id="gold" x1="0" y1="0" x2="1" y2="1"><stop stop-color="#fbbf24"/><stop offset="1" stop-color="#f59e0b"/></linearGradient>
</defs>
<rect width="1400" height="420" rx="30" fill="url(#bg)"/>
<g opacity=".1" stroke="#f59e0b"><path d="M0 360H1400M0 315H1400M0 270H1400M0 225H1400M0 180H1400"/><path d="M100 0L20 420M280 0L200 420M460 0L380 420M640 0L560 420M820 0L740 420M1000 0L920 420M1180 0L1100 420"/></g>
<g transform="translate(70 56)" font-family="Arial,Helvetica,sans-serif">
<text fill="#fbbf24" font-size="15" font-weight="700" letter-spacing="4">LEADERSHIP &amp; RECOGNITION</text>
<text y="54" fill="#ffffff" font-size="38" font-weight="800">BUILD • LEAD • PARTICIPATE</text>
<g transform="translate(0 92)">
<rect width="360" height="82" rx="18" fill="#0b1220" stroke="#f59e0b" stroke-opacity=".28"/>
<circle cx="28" cy="41" r="11" fill="#fbbf24"/>
<text x="54" y="34" fill="#f8fafc" font-size="16" font-weight="800">AI VISHWAGURU</text>
<text x="54" y="57" fill="#94a3b8" font-size="13">Ambassador</text>
</g>
<g transform="translate(380 92)">
<rect width="360" height="82" rx="18" fill="#0b1220" stroke="#f59e0b" stroke-opacity=".28"/>
<circle cx="28" cy="41" r="11" fill="#a78bfa"/>
<text x="54" y="34" fill="#f8fafc" font-size="16" font-weight="800">ASSOCIATION OF MASTER'S TECH</text>
<text x="54" y="57" fill="#94a3b8" font-size="13">Executive Member</text>
</g>
<g transform="translate(760 92)">
<rect width="310" height="82" rx="18" fill="#0b1220" stroke="#f59e0b" stroke-opacity=".28"/>
<circle cx="28" cy="41" r="11" fill="#22d3ee"/>
<text x="54" y="34" fill="#f8fafc" font-size="16" font-weight="800">UTSAVA 2026</text>
<text x="54" y="57" fill="#94a3b8" font-size="13">Event Coordinator</text>
</g>
<text y="215" fill="#64748b" font-size="12" font-weight="700" letter-spacing="3">RECOGNITION</text>
<g transform="translate(0 235)">
<rect width="350" height="64" rx="16" fill="#0b1220" stroke="#334155"/>
<text x="22" y="28" fill="#fbbf24" font-size="15" font-weight="800">3RD PLACE</text>
<text x="22" y="49" fill="#94a3b8" font-size="12">GitSetGo Contest • FOSS Club</text>
</g>
<g transform="translate(370 235)">
<rect width="350" height="64" rx="16" fill="#0b1220" stroke="#334155"/>
<text x="22" y="28" fill="#c4b5fd" font-size="15" font-weight="800">RUNNER-UP</text>
<text x="22" y="49" fill="#94a3b8" font-size="12">NiCHE • MBA Department</text>
</g>
<g transform="translate(740 235)">
<rect width="330" height="64" rx="16" fill="#0b1220" stroke="#334155"/>
<text x="22" y="28" fill="#67e8f9" font-size="15" font-weight="800">CREDENTIALS</text>
<text x="22" y="49" fill="#94a3b8" font-size="12">Generative AI • TCS iON • MongoDB • NPTEL</text>
</g>
</g>
<g transform="translate(1190 205)">
<circle r="105" fill="none" stroke="#f59e0b" stroke-width="2" opacity=".35">
<animateTransform attributeName="transform" type="rotate" from="0" to="360" dur="10s" repeatCount="indefinite"/>
</circle>
<circle r="78" fill="none" stroke="#8b5cf6" stroke-width="2" opacity=".4">
<animateTransform attributeName="transform" type="rotate" from="360" to="0" dur="8s" repeatCount="indefinite"/>
</circle>
<polygon points="0,-66 19,-22 67,-22 30,7 42,56 0,28 -42,56 -30,7 -67,-22 -19,-22" fill="url(#gold)" stroke="#fde68a" stroke-width="3">
<animateTransform attributeName="transform" type="rotate" values="0;360" dur="7s" repeatCount="indefinite"/>
</polygon>
<circle r="8" fill="#fff"><animate attributeName="r" values="5;12;5" dur="2s" repeatCount="indefinite"/></circle>
</g>
</svg>