<svg xmlns="http://www.w3.org/2000/svg" viewBox="0 0 1200 260">
<defs><linearGradient id="b" x2="1" y2="1"><stop stop-color="#020617"/><stop offset=".5" stop-color="#0f172a"/><stop offset="1" stop-color="#111827"/></linearGradient><linearGradient id="g"><stop stop-color="#22d3ee"/><stop offset="1" stop-color="#f59e0b"/></linearGradient></defs>
<rect width="1200" height="260" rx="28" fill="url(#b)"/>
<g opacity=".16" stroke="#22d3ee" stroke-width="1"><path d="M0 210H1200M0 170H1200M0 130H1200M0 90H1200M0 50H1200"/><path d="M70 0L0 260M210 0L140 260M350 0L280 260M490 0L420 260M630 0L560 260M770 0L700 260M910 0L840 260M1050 0L980 260"/></g>
<g transform="translate(1040 130)">
<circle r="78" fill="none" stroke="#22d3ee" stroke-width="2" opacity=".4"><animateTransform attributeName="transform" type="rotate" from="0" to="360" dur="12s" repeatCount="indefinite"/></circle>
<circle r="52" fill="none" stroke="#f59e0b" stroke-width="2" opacity=".55"><animateTransform attributeName="transform" type="rotate" from="360" to="0" dur="8s" repeatCount="indefinite"/></circle>
<g stroke="#67e8f9" stroke-width="3" fill="none"><rect x="-55" y="-45" width="110" height="90" rx="12"/><path d="M-35 0L-10 24L32-25"/><circle cx="-35" cy="0" r="5" fill="#67e8f9"/><circle cx="-10" cy="24" r="5" fill="#a78bfa"/><circle cx="32" cy="-25" r="5" fill="#f59e0b"/></g>
<circle r="7" fill="#22d3ee"><animate attributeName="r" values="5;10;5" dur="2s" repeatCount="indefinite"/></circle>
</g>
<g transform="translate(64 65)" font-family="Arial,Helvetica,sans-serif">
<text fill="#22d3ee" font-size="14" font-weight="700" letter-spacing="4">PROJECTS</text>
<text y="62" fill="#fff" font-size="38" font-weight="800">PLANTS • VISION • INDUSTRIAL • FULL STACK</text>
<rect y="96" width="300" height="3" rx="2" fill="url(#g)"><animate attributeName="width" values="120;340;220;300" dur="4s" repeatCount="indefinite"/></rect>
</g></svg>