<svg xmlns="http://www.w3.org/2000/svg" viewBox="0 0 320 150" role="img" aria-label="DATABASES">
<defs><linearGradient id="b" x2="1" y2="1"><stop stop-color="#020617"/><stop offset="1" stop-color="#111827"/></linearGradient></defs>
<rect width="320" height="150" rx="20" fill="url(#b)"/>
<g opacity=".12" stroke="#f59e0b"><path d="M0 120H320M0 90H320M0 60H320M0 30H320"/><path d="M35 0L0 150M115 0L80 150M195 0L160 150M275 0L240 150"/></g>
<g transform="translate(243 75)"><ellipse cy="-25" rx="36" ry="12" fill="#f59e0b" stroke="#67e8f9" stroke-width="2"/><path d="M-36-25V35C-36 48 36 48 36 35V-25" fill="#083344" stroke="#67e8f9" stroke-width="2"/><ellipse cy="35" rx="36" ry="12" fill="#f59e0b" stroke="#67e8f9" stroke-width="2"/><ellipse cy="5" rx="36" ry="12" fill="none" stroke="#155e75" stroke-width="2"/><circle cx="22" cy="-28" r="4" fill="#fff"><animate attributeName="opacity" values=".2;1;.2" dur="1.5s" repeatCount="indefinite"/></circle></g>
<text x="20" y="48" fill="#fff" font-family="Arial,Helvetica,sans-serif" font-size="20" font-weight="800">DATABASES</text>
<rect x="20" y="64" width="115" height="3" rx="2" fill="#f59e0b"><animate attributeName="width" values="55;145;85;115" dur="3.5s" repeatCount="indefinite"/></rect>
<text x="20" y="96" fill="#64748b" font-family="monospace" font-size="10">BUILD • LEARN • APPLY</text>
</svg>